<svg width="60" height="60" viewBox="0 0 60 60" fill="none" xmlns="http://www.w3.org/2000/svg">
<path d="M3.00009 32.9999H6.00009V53.9999C6.00009 57.3089 8.69109 59.9999 12.0001 59.9999H48.0001C51.3091 59.9999 54.0001 57.3089 54.0001 53.9999V32.9999H57.0001C57.5933 32.9998 58.1732 32.8238 58.6665 32.4941C59.1597 32.1645 59.5441 31.696 59.7711 31.1479C59.9981 30.5998 60.0575 29.9967 59.9418 29.4148C59.8261 28.833 59.5405 28.2985 59.1211 27.8789L32.1211 0.878932C31.8427 0.600095 31.5121 0.378881 31.1482 0.227949C30.7842 0.0770169 30.3941 -0.000671387 30.0001 -0.000671387C29.6061 -0.000671387 29.216 0.0770169 28.852 0.227949C28.4881 0.378881 28.1575 0.600095 27.8791 0.878932L0.879093 27.8789C0.459665 28.2985 0.174046 28.833 0.0583429 29.4148C-0.0573598 29.9967 0.00204927 30.5998 0.229059 31.1479C0.45607 31.696 0.840488 32.1645 1.33372 32.4941C1.82695 32.8238 2.40684 32.9998 3.00009 32.9999ZM30.0001 7.24193L48.0001 25.2419V38.9999L48.0031 53.9999H12.0001V25.2419L30.0001 7.24193Z" fill="#4B2A63"/>
</svg>
